<svg width="80" height="80" viewBox="0 0 80 80" fill="none" xmlns="http://www.w3.org/2000/svg">
<path d="M4.09277e-06 40.1871C4.09277e-06 42.1762 0.683452 44.0839 1.89999 45.4904C3.11653 46.8969 4.76651 47.6871 6.48695 47.6871H57.8636L40.8245 67.3871C39.6787 68.8088 39.0549 70.6893 39.0845 72.6323C39.1142 74.5753 39.795 76.4292 40.9835 77.8033C42.172 79.1774 43.7755 79.9645 45.456 79.9988C47.1366 80.0331 48.7631 79.3119 49.9928 77.9871L78.1029 45.4871C79.3177 44.0808 80 42.1746 80 40.1871C80 38.1996 79.3177 36.2933 78.1029 34.8871L49.9928 2.38708C49.3989 1.65021 48.6827 1.05919 47.887 0.649273C47.0913 0.239354 46.2323 0.0189351 45.3613 0.00116722C44.4903 -0.0166006 43.6251 0.168645 42.8173 0.545855C42.0096 0.923065 41.2759 1.48451 40.6599 2.1967C40.0439 2.90889 39.5583 3.75723 39.232 4.69111C38.9058 5.62499 38.7455 6.62528 38.7609 7.63231C38.7763 8.63934 38.9669 9.63247 39.3215 10.5525C39.676 11.4725 40.1872 12.3005 40.8245 12.9871L57.8636 32.6871H6.48695C2.90616 32.6871 4.09277e-06 36.0471 4.09277e-06 40.1871Z" fill="white"/>
</svg>
